Coordinates
version=1
nRows=8
nColumns=40
inDegrees=yes

Units are S.I. units (second, meters, Newtons, ...)
Angles are in degrees.

endheader
time	pelvis_tilt	pelvis_list	pelvis_rotation	pelvis_tx	pelvis_ty	pelvis_tz	hip_flexion_r	hip_adduction_r	hip_rotation_r	knee_angle_r	knee_angle_r_beta	ankle_angle_r	subtalar_angle_r	mtp_angle_r	hip_flexion_l	hip_adduction_l	hip_rotation_l	knee_angle_l	knee_angle_l_beta	ankle_angle_l	subtalar_angle_l	mtp_angle_l	lumbar_extension	lumbar_bending	lumbar_rotation	arm_flex_r	arm_add_r	arm_rot_r	elbow_flex_r	pro_sup_r	wrist_flex_r	wrist_dev_r	arm_flex_l	arm_add_l	arm_rot_l	elbow_flex_l	pro_sup_l	wrist_flex_l	wrist_dev_l
      0.66000000	     -7.39929040	     -5.49704416	      1.38196752	      1.06465669	      0.92583961	      0.48923790	     16.37784563	      2.35918431	    -15.55433507	     17.18701259	     17.18701259	     10.15187402	      1.16827991	     -2.22089937	     35.29221047	    -11.71461519	      6.08463307	     71.92137051	     71.92137051	     -1.81182195	    -14.58388444	      2.38756409	    -12.08443012	      2.86207482	      2.62134925	     11.64376155	    -16.84230064	      2.28313061	     71.62034870	     45.94505144	      0.00000000	      0.00000000	     -0.06466827	     -6.60817670	    -10.66235112	     35.11140366	     45.63143049	      0.00000000	      0.00000000
      0.67150000	     -7.54253555	     -5.54811836	      1.58668891	      1.06293233	      0.92640290	      0.49010005	     15.57470690	      2.59697504	    -15.71883610	     16.25938430	     16.25938430	     10.26554024	      1.46104780	     -2.10092028	     37.12685484	    -11.78926402	      5.99157977	     71.12606567	     71.12606567	     -1.50167666	    -15.65773752	      2.48361620	    -12.19162790	      2.75001176	      2.24599186	     14.41737108	    -16.51436268	      2.26815334	     74.27870785	     45.86160799	      0.00000000	      0.00000000	     -1.24010100	     -6.51846575	    -10.47870339	     33.74019515	     45.60223147	      0.00000000	      0.00000000
      0.68300000	     -7.66970655	     -5.60311916	      1.75517622	      1.06122036	      0.92681760	      0.49093008	     14.84422161	      2.82819978	    -15.81810695	     15.48340868	     15.48340868	     10.35370751	      1.65220613	     -2.21103904	     38.82883964	    -11.89371269	      5.80199897	     70.15301698	     70.15301698	     -1.01609199	    -16.50593237	      3.02612277	    -12.36646594	      2.70713924	      2.44898470	     16.59372882	    -17.21987645	      3.28274836	     78.45967450	     45.67637887	      0.00000000	      0.00000000	     -1.68808980	     -6.31952065	     -9.99287762	     31.29123815	     45.58014576	      0.00000000	      0.00000000
      0.69450000	     -7.79744697	     -5.63999851	      1.95087753	      1.05957817	      0.92719290	      0.49165359	     14.09608732	      3.05038377	    -15.86591528	     14.66372722	     14.66372722	     10.46551882	      1.75571354	     -2.12018174	     40.39127802	    -11.94046298	      5.56941970	     68.90866497	     68.90866497	     -0.56383052	    -17.30921473	      3.65484477	    -12.50371346	      2.61194683	      2.22431201	     19.39805466	    -16.84091746	      2.98520846	     80.91541217	     45.61300030	      0.00000000	      0.00000000	     -2.73730218	     -6.19563309	     -9.76293395	     30.08125198	     45.54630594	      0.00000000	      0.00000000
      0.70600000	     -7.93593012	     -5.66339581	      2.14515059	      1.05796313	      0.92747311	      0.49225190	     13.38149940	      3.24319602	    -15.88616329	     13.87849069	     13.87849069	     10.55788173	      1.89982588	     -2.07035592	     41.82175160	    -11.95070041	      5.29140061	     67.38268248	     67.38268248	      0.06280365	    -17.83621515	      4.61099458	    -12.64731939	      2.52155400	      2.13048267	     22.11098414	    -16.65329058	      2.92145408	     83.51486208	     45.53788162	      0.00000000	      0.00000000	     -3.64622886	     -6.05838241	     -9.48094594	     28.82737706	     45.50607504	      0.00000000	      0.00000000
      0.71750000	     -8.10232392	     -5.63578892	      2.32535742	      1.05638827	      0.92761820	      0.49249212	     12.72209893	      3.34305575	    -15.98715897	     13.13460573	     13.13460573	     10.57690616	      2.05089393	     -2.34697159	     43.20614068	    -11.79925379	      4.99874927	     65.73818910	     65.73818910	      1.57920798	    -17.94572587	      7.87703870	    -12.75515279	      2.45370592	      2.62107146	     24.20464291	    -17.38904028	      3.32208898	     87.19278745	     45.40116264	      0.00000000	      0.00000000	     -3.77397330	     -5.92886959	     -8.44647641	     26.62424649	     45.40725341	      0.00000000	      0.00000000
      0.72900000	     -8.27627611	     -5.60131674	      2.53566237	      1.05486273	      0.92767179	      0.49257301	     12.07544645	      3.42513246	    -16.04503651	     12.41163793	     12.41163793	     10.70432727	      2.17865631	     -2.30086238	     44.32412960	    -11.61218455	      4.68065791	     63.55217820	     63.55217820	      2.17476877	    -18.23603384	      8.54993258	    -12.82890686	      2.34744610	      2.48654149	     26.95101681	    -16.95499087	      2.91773336	     89.30827137	     45.35526343	      0.00000000	      0.00000000	     -4.68818481	     -5.81454917	     -8.16882579	     25.90716901	     45.36040430	      0.00000000	      0.00000000
      0.74050000	     -8.46245270	     -5.53479599	      2.73827419	      1.05335457	      0.92763240	      0.49236013	     11.47916831	      3.44020315	    -16.13505843	     11.76728368	     11.76728368	     10.83239445	      2.33859384	     -2.29758289	     45.26243383	    -11.30952172	      4.36997976	     61.02478140	     61.02478140	      2.79370580	    -18.34421214	      9.24547165	    -12.88573801	      2.24214277	      2.47234666	     29.62504162	    -16.75270958	      2.74274183	     91.47530878	     45.30158303	      0.00000000	      0.00000000	     -5.47465009	     -5.70341186	     -7.89178016	     25.30806438	     45.31118373	      0.00000000	      0.00000000
